<svg width="900" height="579" viewBox="0 0 900 579" fill="none" xmlns="http://www.w3.org/2000/svg">
<g id="movies" clip-path="url(#clip0)">
<g id="texts">
<g id="Movies">
<path d="M11.6791 73.5H40.4791L53.8291 144.15L68.2291 73.5H95.9791L98.0791 195H79.0291L76.7791 114.15L62.6791 195H45.7291L30.7291 113.55L28.9291 195H9.57905L11.6791 73.5ZM142.794 196.5C133.294 196.5 125.844 194.1 120.444 189.3C115.144 184.5 112.494 177.45 112.494 168.15V135.15C112.494 125.85 115.144 118.8 120.444 114C125.844 109.2 133.294 106.8 142.794 106.8C152.294 106.8 159.744 109.25 165.144 114.15C170.544 118.95 173.244 125.95 173.244 135.15V168.15C173.244 177.35 170.544 184.4 165.144 189.3C159.744 194.1 152.294 196.5 142.794 196.5ZM142.944 180.3C145.244 180.3 146.844 179.45 147.744 177.75C148.644 175.95 149.094 173.3 149.094 169.8V133.5C149.094 130 148.644 127.4 147.744 125.7C146.844 123.9 145.244 123 142.944 123C140.644 123 138.994 123.9 137.994 125.7C137.094 127.5 136.644 130.1 136.644 133.5V169.8C136.644 173.3 137.094 175.95 137.994 177.75C138.994 179.45 140.644 180.3 142.944 180.3ZM180.654 108.3H204.054L211.254 163.65L217.854 108.3H241.254L223.404 195H198.054L180.654 108.3ZM249.939 76.65H274.539V93.6H249.939V76.65ZM250.089 108.3H274.539V195H250.089V108.3ZM317.986 196.5C308.486 196.5 301.086 194 295.786 189C290.486 183.9 287.836 176.75 287.836 167.55V135.75C287.836 126.55 290.486 119.45 295.786 114.45C301.086 109.35 308.486 106.8 317.986 106.8C327.586 106.8 334.786 109.25 339.586 114.15C344.386 119.05 346.786 126.25 346.786 135.75V153.15H311.986V169.8C311.986 176 313.986 179.1 317.986 179.1C322.186 179.1 324.286 176.3 324.286 170.7V161.55H346.786V169.95C346.786 178.65 344.236 185.25 339.136 189.75C334.136 194.25 327.086 196.5 317.986 196.5ZM324.286 141.75V133.05C324.286 129.85 323.686 127.6 322.486 126.3C321.386 124.9 319.836 124.2 317.836 124.2C315.936 124.2 314.486 124.95 313.486 126.45C312.486 127.95 311.986 130.6 311.986 134.4V141.75H324.286ZM386.795 196.5C379.095 196.5 372.695 194.8 367.595 191.4C362.595 187.9 358.545 182.35 355.445 174.75L372.095 167.4C373.695 171.4 375.545 174.5 377.645 176.7C379.845 178.9 382.245 180 384.845 180C388.645 180 390.545 178.5 390.545 175.5C390.545 173.3 389.795 171.35 388.295 169.65C386.795 167.85 383.545 164.9 378.545 160.8L372.245 155.55C367.045 151.15 363.245 147.15 360.845 143.55C358.545 139.95 357.395 135.65 357.395 130.65C357.395 126.05 358.595 121.95 360.995 118.35C363.495 114.75 366.795 111.95 370.895 109.95C374.995 107.85 379.395 106.8 384.095 106.8C391.195 106.8 397.095 108.75 401.795 112.65C406.595 116.45 409.995 121.95 411.995 129.15L396.245 136.35C395.245 133.15 393.695 130.3 391.595 127.8C389.495 125.2 387.195 123.9 384.695 123.9C383.095 123.9 381.795 124.35 380.795 125.25C379.895 126.15 379.445 127.35 379.445 128.85C379.445 130.65 380.395 132.6 382.295 134.7C384.295 136.8 387.395 139.55 391.595 142.95L397.745 148.35C402.745 152.55 406.595 156.5 409.295 160.2C411.995 163.8 413.345 168.05 413.345 172.95C413.345 177.85 412.095 182.1 409.595 185.7C407.195 189.2 403.945 191.9 399.845 193.8C395.845 195.6 391.495 196.5 386.795 196.5Z" fill="black"/>
<path d="M11.6791 73.5V69.5H7.74759L7.67965 73.4309L11.6791 73.5ZM40.4791 73.5L44.4095 72.7573L43.794 69.5H40.4791V73.5ZM53.8291 144.15L49.8986 144.893L57.7485 144.949L53.8291 144.15ZM68.2291 73.5V69.5H64.9621L64.3096 72.7011L68.2291 73.5ZM95.9791 73.5L99.9785 73.4309L99.9105 69.5H95.9791V73.5ZM98.0791 195V199H102.149L102.078 194.931L98.0791 195ZM79.0291 195L75.0306 195.111L75.1388 199H79.0291V195ZM76.7791 114.15L80.7775 114.039L72.8385 113.463L76.7791 114.15ZM62.6791 195V199H66.0418L66.6196 195.687L62.6791 195ZM45.7291 195L41.7952 195.724L42.3984 199H45.7291V195ZM30.7291 113.55L34.6629 112.826L26.73 113.462L30.7291 113.55ZM28.9291 195V199H32.8416L32.9281 195.088L28.9291 195ZM9.57905 195L5.57965 194.931L5.50932 199H9.57905V195ZM11.6791 77.5H40.4791V69.5H11.6791V77.5ZM36.5486 74.2427L49.8986 144.893L57.7595 143.407L44.4095 72.7573L36.5486 74.2427ZM57.7485 144.949L72.1485 74.2989L64.3096 72.7011L49.9096 143.351L57.7485 144.949ZM68.2291 77.5H95.9791V69.5H68.2291V77.5ZM91.9797 73.5691L94.0797 195.069L102.078 194.931L99.9785 73.4309L91.9797 73.5691ZM98.0791 191H79.0291V199H98.0791V191ZM83.0275 194.889L80.7775 114.039L72.7806 114.261L75.0306 195.111L83.0275 194.889ZM72.8385 113.463L58.7385 194.313L66.6196 195.687L80.7196 114.837L72.8385 113.463ZM62.6791 191H45.7291V199H62.6791V191ZM49.6629 194.276L34.6629 112.826L26.7952 114.274L41.7952 195.724L49.6629 194.276ZM26.73 113.462L24.93 194.912L32.9281 195.088L34.7281 113.638L26.73 113.462ZM28.9291 191H9.57905V199H28.9291V191ZM13.5785 195.069L15.6785 73.5691L7.67965 73.4309L5.57965 194.931L13.5785 195.069ZM120.444 189.3L117.759 192.265L117.773 192.277L117.787 192.29L120.444 189.3ZM120.444 114L117.787 111.01L117.773 111.023L117.759 111.035L120.444 114ZM165.144 114.15L162.456 117.112L162.472 117.126L162.487 117.14L165.144 114.15ZM165.144 189.3L167.802 192.29L167.817 192.276L167.832 192.262L165.144 189.3ZM147.744 177.75L151.279 179.622L151.301 179.58L151.322 179.539L147.744 177.75ZM147.744 125.7L144.167 127.489L144.187 127.53L144.209 127.572L147.744 125.7ZM137.994 125.7L134.498 123.757L134.455 123.833L134.417 123.911L137.994 125.7ZM137.994 177.75L134.417 179.539L134.477 179.661L134.547 179.778L137.994 177.75ZM142.794 192.5C133.959 192.5 127.564 190.277 123.102 186.31L117.787 192.29C124.124 197.923 132.629 200.5 142.794 200.5V192.5ZM123.129 186.335C118.901 182.505 116.494 176.68 116.494 168.15H108.494C108.494 178.22 111.388 186.495 117.759 192.265L123.129 186.335ZM116.494 168.15V135.15H108.494V168.15H116.494ZM116.494 135.15C116.494 126.62 118.901 120.795 123.129 116.965L117.759 111.035C111.388 116.805 108.494 125.08 108.494 135.15H116.494ZM123.102 116.99C127.564 113.023 133.959 110.8 142.794 110.8V102.8C132.629 102.8 124.124 105.377 117.787 111.01L123.102 116.99ZM142.794 110.8C151.609 110.8 157.993 113.062 162.456 117.112L167.832 111.188C161.496 105.438 152.979 102.8 142.794 102.8V110.8ZM162.487 117.14C166.811 120.984 169.244 126.758 169.244 135.15H177.244C177.244 125.142 174.277 116.916 167.802 111.16L162.487 117.14ZM169.244 135.15V168.15H177.244V135.15H169.244ZM169.244 168.15C169.244 176.538 166.812 182.385 162.456 186.338L167.832 192.262C174.276 186.415 177.244 178.162 177.244 168.15H169.244ZM162.487 186.31C158.024 190.277 151.629 192.5 142.794 192.5V200.5C152.959 200.5 161.464 197.923 167.802 192.29L162.487 186.31ZM142.944 184.3C146.377 184.3 149.537 182.913 151.279 179.622L144.209 175.878C144.109 176.067 144.042 176.104 143.993 176.13C143.906 176.176 143.612 176.3 142.944 176.3V184.3ZM151.322 179.539C152.635 176.914 153.094 173.526 153.094 169.8H145.094C145.094 173.074 144.654 174.986 144.167 175.961L151.322 179.539ZM153.094 169.8V133.5H145.094V169.8H153.094ZM153.094 133.5C153.094 129.801 152.643 126.404 151.279 123.828L144.209 127.572C144.646 128.396 145.094 130.199 145.094 133.5H153.094ZM151.322 123.911C150.551 122.368 149.393 121.068 147.83 120.189C146.298 119.327 144.61 119 142.944 119V127C143.578 127 143.84 127.123 143.908 127.161C143.945 127.182 144.038 127.232 144.167 127.489L151.322 123.911ZM142.944 119C139.398 119 136.298 120.517 134.498 123.757L141.491 127.643C141.66 127.339 141.8 127.239 141.897 127.187C142.017 127.121 142.315 127 142.944 127V119ZM134.417 123.911C133.11 126.525 132.644 129.852 132.644 133.5H140.644C140.644 130.348 141.079 128.475 141.572 127.489L134.417 123.911ZM132.644 133.5V169.8H140.644V133.5H132.644ZM132.644 169.8C132.644 173.526 133.104 176.914 134.417 179.539L141.572 175.961C141.085 174.986 140.644 173.074 140.644 169.8H132.644ZM134.547 179.778C136.397 182.923 139.506 184.3 142.944 184.3V176.3C141.782 176.3 141.592 175.977 141.442 175.722L134.547 179.778ZM180.654 108.3V104.3H175.772L176.732 109.087L180.654 108.3ZM204.054 108.3L208.021 107.784L207.567 104.3H204.054V108.3ZM211.254 163.65L207.287 164.166L215.226 164.124L211.254 163.65ZM217.854 108.3V104.3H214.303L213.882 107.826L217.854 108.3ZM241.254 108.3L245.172 109.107L246.161 104.3H241.254V108.3ZM223.404 195V199H226.664L227.322 195.807L223.404 195ZM198.054 195L194.132 195.787L194.777 199H198.054V195ZM180.654 112.3H204.054V104.3H180.654V112.3ZM200.087 108.816L207.287 164.166L215.221 163.134L208.021 107.784L200.087 108.816ZM215.226 164.124L221.826 108.774L213.882 107.826L207.282 163.176L215.226 164.124ZM217.854 112.3H241.254V104.3H217.854V112.3ZM237.336 107.493L219.486 194.193L227.322 195.807L245.172 109.107L237.336 107.493ZM223.404 191H198.054V199H223.404V191ZM201.976 194.213L184.576 107.513L176.732 109.087L194.132 195.787L201.976 194.213ZM249.939 76.65V72.65H245.939V76.65H249.939ZM274.539 76.65H278.539V72.65H274.539V76.65ZM274.539 93.6V97.6H278.539V93.6H274.539ZM249.939 93.6H245.939V97.6H249.939V93.6ZM250.089 108.3V104.3H246.089V108.3H250.089ZM274.539 108.3H278.539V104.3H274.539V108.3ZM274.539 195V199H278.539V195H274.539ZM250.089 195H246.089V199H250.089V195ZM249.939 80.65H274.539V72.65H249.939V80.65ZM270.539 76.65V93.6H278.539V76.65H270.539ZM274.539 89.6H249.939V97.6H274.539V89.6ZM253.939 93.6V76.65H245.939V93.6H253.939ZM250.089 112.3H274.539V104.3H250.089V112.3ZM270.539 108.3V195H278.539V108.3H270.539ZM274.539 191H250.089V199H274.539V191ZM254.089 195V108.3H246.089V195H254.089ZM295.786 189L293.013 191.882L293.027 191.896L293.041 191.91L295.786 189ZM295.786 114.45L298.531 117.36L298.545 117.346L298.56 117.332L295.786 114.45ZM339.586 114.15L342.444 111.351L342.444 111.351L339.586 114.15ZM346.786 153.15V157.15H350.786V153.15H346.786ZM311.986 153.15V149.15H307.986V153.15H311.986ZM324.286 161.55V157.55H320.286V161.55H324.286ZM346.786 161.55H350.786V157.55H346.786V161.55ZM339.136 189.75L336.49 186.751L336.475 186.764L336.46 186.777L339.136 189.75ZM324.286 141.75V145.75H328.286V141.75H324.286ZM322.486 126.3L319.341 128.771L319.439 128.896L319.547 129.013L322.486 126.3ZM313.486 126.45L316.814 128.669L316.814 128.669L313.486 126.45ZM311.986 141.75H307.986V145.75H311.986V141.75ZM317.986 192.5C309.187 192.5 302.885 190.198 298.531 186.09L293.041 191.91C299.288 197.802 307.786 200.5 317.986 200.5V192.5ZM298.56 186.118C294.23 181.952 291.836 175.952 291.836 167.55H283.836C283.836 177.548 286.742 185.848 293.013 191.882L298.56 186.118ZM291.836 167.55V135.75H283.836V167.55H291.836ZM291.836 135.75C291.836 127.344 294.231 121.416 298.531 117.36L293.041 111.54C286.741 117.484 283.836 125.756 283.836 135.75H291.836ZM298.56 117.332C302.916 113.141 309.207 110.8 317.986 110.8V102.8C307.765 102.8 299.257 105.559 293.013 111.568L298.56 117.332ZM317.986 110.8C326.948 110.8 332.94 113.082 336.729 116.949L342.444 111.351C336.632 105.418 328.224 102.8 317.986 102.8V110.8ZM336.729 116.949C340.553 120.853 342.786 126.887 342.786 135.75H350.786C350.786 125.613 348.22 117.247 342.444 111.351L336.729 116.949ZM342.786 135.75V153.15H350.786V135.75H342.786ZM346.786 149.15H311.986V157.15H346.786V149.15ZM307.986 153.15V169.8H315.986V153.15H307.986ZM307.986 169.8C307.986 173.202 308.512 176.443 310.125 178.944C311.933 181.745 314.764 183.1 317.986 183.1V175.1C317.508 175.1 317.284 175.01 317.197 174.965C317.124 174.927 317.005 174.85 316.847 174.606C316.461 174.007 315.986 172.598 315.986 169.8H307.986ZM317.986 183.1C321.062 183.1 323.951 182.014 325.911 179.4C327.709 177.002 328.286 173.885 328.286 170.7H320.286C320.286 173.115 319.813 174.198 319.511 174.6C319.372 174.786 319.11 175.1 317.986 175.1V183.1ZM328.286 170.7V161.55H320.286V170.7H328.286ZM324.286 165.55H346.786V157.55H324.286V165.55ZM342.786 161.55V169.95H350.786V161.55H342.786ZM342.786 169.95C342.786 177.845 340.502 183.211 336.49 186.751L341.783 192.749C347.97 187.289 350.786 179.455 350.786 169.95H342.786ZM336.46 186.777C332.42 190.413 326.451 192.5 317.986 192.5V200.5C327.722 200.5 335.852 198.087 341.812 192.723L336.46 186.777ZM328.286 141.75V133.05H320.286V141.75H328.286ZM328.286 133.05C328.286 129.577 327.68 126.029 325.425 123.587L319.547 129.013C319.693 129.171 320.286 130.123 320.286 133.05H328.286ZM325.631 123.829C323.673 121.336 320.891 120.2 317.836 120.2V128.2C318.781 128.2 319.1 128.464 319.341 128.771L325.631 123.829ZM317.836 120.2C314.685 120.2 311.946 121.549 310.158 124.231L316.814 128.669C316.979 128.422 317.099 128.347 317.161 128.315C317.232 128.279 317.421 128.2 317.836 128.2V120.2ZM310.158 124.231C308.447 126.797 307.986 130.515 307.986 134.4H315.986C315.986 130.685 316.525 129.103 316.814 128.669L310.158 124.231ZM307.986 134.4V141.75H315.986V134.4H307.986ZM311.986 145.75H324.286V137.75H311.986V145.75ZM367.595 191.4L365.301 194.677L365.338 194.703L365.376 194.728L367.595 191.4ZM355.445 174.75L353.83 171.091L350.273 172.661L351.741 176.261L355.445 174.75ZM372.095 167.4L375.809 165.914L374.27 162.067L370.48 163.741L372.095 167.4ZM377.645 176.7L374.752 179.462L374.784 179.496L374.817 179.528L377.645 176.7ZM388.295 169.65L385.222 172.211L385.258 172.254L385.296 172.296L388.295 169.65ZM378.545 160.8L375.984 163.873L375.997 163.883L376.009 163.893L378.545 160.8ZM372.245 155.55L369.661 158.604L369.673 158.613L369.684 158.623L372.245 155.55ZM360.845 143.55L357.474 145.704L357.495 145.736L357.517 145.769L360.845 143.55ZM360.995 118.35L357.71 116.068L357.688 116.1L357.667 116.131L360.995 118.35ZM370.895 109.95L372.649 113.545L372.684 113.528L372.719 113.51L370.895 109.95ZM401.795 112.65L399.241 115.728L399.276 115.758L399.312 115.786L401.795 112.65ZM411.995 129.15L413.658 132.788L416.763 131.369L415.849 128.079L411.995 129.15ZM396.245 136.35L392.427 137.543L393.781 141.875L397.908 139.988L396.245 136.35ZM391.595 127.8L388.483 130.313L388.507 130.343L388.532 130.373L391.595 127.8ZM380.795 125.25L378.119 122.277L378.041 122.347L377.967 122.422L380.795 125.25ZM382.295 134.7L379.329 137.384L379.363 137.422L379.399 137.459L382.295 134.7ZM391.595 142.95L394.234 139.944L394.174 139.891L394.112 139.841L391.595 142.95ZM397.745 148.35L395.106 151.356L395.139 151.385L395.172 151.413L397.745 148.35ZM409.295 160.2L406.064 162.558L406.079 162.579L406.095 162.6L409.295 160.2ZM409.595 185.7L406.31 183.418L406.303 183.428L406.296 183.438L409.595 185.7ZM399.845 193.8L401.487 197.448L401.507 197.439L401.527 197.429L399.845 193.8ZM386.795 192.5C379.682 192.5 374.107 190.934 369.814 188.072L365.376 194.728C371.284 198.666 378.508 200.5 386.795 200.5V192.5ZM369.889 188.123C365.701 185.192 362.056 180.366 359.149 173.239L351.741 176.261C355.034 184.334 359.489 190.608 365.301 194.677L369.889 188.123ZM357.06 178.409L373.71 171.059L370.48 163.741L353.83 171.091L357.06 178.409ZM368.381 168.886C370.098 173.177 372.185 176.773 374.752 179.462L380.538 173.938C378.905 172.227 377.292 169.623 375.809 165.914L368.381 168.886ZM374.817 179.528C377.609 182.321 380.98 184 384.845 184V176C383.51 176 382.081 175.479 380.473 173.872L374.817 179.528ZM384.845 184C387.163 184 389.64 183.561 391.599 182.015C393.737 180.326 394.545 177.901 394.545 175.5H386.545C386.545 175.834 386.492 175.941 386.504 175.913C386.526 175.86 386.582 175.782 386.641 175.735C386.681 175.704 386.614 175.773 386.321 175.85C386.02 175.93 385.545 176 384.845 176V184ZM394.545 175.5C394.545 172.293 393.418 169.41 391.294 167.004L385.296 172.296C386.173 173.29 386.545 174.307 386.545 175.5H394.545ZM391.368 167.089C389.59 164.955 386.05 161.781 381.081 157.707L376.009 163.893C381.04 168.019 384 170.745 385.222 172.211L391.368 167.089ZM381.106 157.727L374.806 152.477L369.684 158.623L375.984 163.873L381.106 157.727ZM374.829 152.496C369.771 148.217 366.282 144.494 364.173 141.331L357.517 145.769C360.208 149.806 364.319 154.083 369.661 158.604L374.829 152.496ZM364.216 141.396C362.393 138.543 361.395 135.019 361.395 130.65H353.395C353.395 136.281 354.697 141.357 357.474 145.704L364.216 141.396ZM361.395 130.65C361.395 126.787 362.39 123.469 364.323 120.569L357.667 116.131C354.801 120.431 353.395 125.313 353.395 130.65H361.395ZM364.281 120.632C366.374 117.616 369.137 115.258 372.649 113.545L369.141 106.355C364.453 108.642 360.616 111.884 357.71 116.068L364.281 120.632ZM372.719 113.51C376.242 111.705 380.016 110.8 384.095 110.8V102.8C378.774 102.8 373.748 103.995 369.072 106.39L372.719 113.51ZM384.095 110.8C390.422 110.8 395.373 112.518 399.241 115.728L404.349 109.572C398.818 104.982 391.968 102.8 384.095 102.8V110.8ZM399.312 115.786C403.313 118.953 406.317 123.653 408.141 130.221L415.849 128.079C413.673 120.247 409.877 113.947 404.278 109.514L399.312 115.786ZM410.332 125.512L394.582 132.712L397.908 139.988L413.658 132.788L410.332 125.512ZM400.063 135.157C398.909 131.465 397.108 128.144 394.658 125.227L388.532 130.373C390.282 132.456 391.581 134.835 392.427 137.543L400.063 135.157ZM394.707 125.287C392.121 122.085 388.781 119.9 384.695 119.9V127.9C385.61 127.9 386.869 128.315 388.483 130.313L394.707 125.287ZM384.695 119.9C382.304 119.9 379.988 120.595 378.119 122.277L383.471 128.223C383.602 128.105 383.886 127.9 384.695 127.9V119.9ZM377.967 122.422C376.184 124.205 375.445 126.493 375.445 128.85H383.445C383.445 128.207 383.606 128.095 383.623 128.078L377.967 122.422ZM375.445 128.85C375.445 132.076 377.128 134.951 379.329 137.384L385.261 132.016C383.662 130.249 383.445 129.224 383.445 128.85H375.445ZM379.399 137.459C381.578 139.748 384.838 142.626 389.078 146.059L394.112 139.841C389.953 136.474 387.012 133.852 385.192 131.941L379.399 137.459ZM388.956 145.956L395.106 151.356L400.384 145.344L394.234 139.944L388.956 145.956ZM395.172 151.413C400.021 155.485 403.616 159.203 406.064 162.558L412.526 157.842C409.574 153.797 405.47 149.615 400.318 145.287L395.172 151.413ZM406.095 162.6C408.229 165.445 409.345 168.834 409.345 172.95H417.345C417.345 167.266 415.761 162.155 412.495 157.8L406.095 162.6ZM409.345 172.95C409.345 177.135 408.29 180.566 406.31 183.418L412.881 187.982C415.9 183.634 417.345 178.565 417.345 172.95H409.345ZM406.296 183.438C404.329 186.307 401.655 188.553 398.163 190.171L401.527 197.429C406.235 195.247 410.061 192.093 412.894 187.962L406.296 183.438ZM398.204 190.152C394.756 191.704 390.97 192.5 386.795 192.5V200.5C392.02 200.5 396.934 199.496 401.487 197.448L398.204 190.152Z" fill="black"/>
</g>
<g id="About">
<path d="M26.1 232.5H56.7L79.35 354H54.6L50.55 328.35H32.7L28.5 354H3.15L26.1 232.5ZM48 312.3L41.55 264.9L35.1 312.3H48ZM133.317 355.5C127.117 355.5 120.917 352.8 114.717 347.4V354H90.2672V232.5H114.717V273.6C117.617 271 120.717 269.05 124.017 267.75C127.317 266.45 130.517 265.8 133.617 265.8C139.917 265.8 144.567 268.15 147.567 272.85C150.667 277.55 152.217 283.7 152.217 291.3V328.65C152.217 336.95 150.567 343.5 147.267 348.3C143.967 353.1 139.317 355.5 133.317 355.5ZM121.467 339.75C123.667 339.75 125.267 338.85 126.267 337.05C127.267 335.25 127.767 332.9 127.767 330V289.5C127.767 286.8 127.267 284.65 126.267 283.05C125.367 281.35 123.867 280.5 121.767 280.5C119.467 280.5 117.117 281.45 114.717 283.35V337.35C116.917 338.95 119.167 339.75 121.467 339.75ZM194.646 355.5C185.146 355.5 177.696 353.1 172.296 348.3C166.996 343.5 164.346 336.45 164.346 327.15V294.15C164.346 284.85 166.996 277.8 172.296 273C177.696 268.2 185.146 265.8 194.646 265.8C204.146 265.8 211.596 268.25 216.996 273.15C222.396 277.95 225.096 284.95 225.096 294.15V327.15C225.096 336.35 222.396 343.4 216.996 348.3C211.596 353.1 204.146 355.5 194.646 355.5ZM194.796 339.3C197.096 339.3 198.696 338.45 199.596 336.75C200.496 334.95 200.946 332.3 200.946 328.8V292.5C200.946 289 200.496 286.4 199.596 284.7C198.696 282.9 197.096 282 194.796 282C192.496 282 190.846 282.9 189.846 284.7C188.946 286.5 188.496 289.1 188.496 292.5V328.8C188.496 332.3 188.946 334.95 189.846 336.75C190.846 338.45 192.496 339.3 194.796 339.3ZM253.956 355.5C248.756 355.5 244.756 353.65 241.956 349.95C239.156 346.15 237.756 341.25 237.756 335.25V267.3H262.206V332.4C262.206 334.6 262.606 336.25 263.406 337.35C264.206 338.45 265.506 339 267.306 339C268.906 339 271.306 338.1 274.506 336.3V267.3H298.806V354H274.506V346.05C267.706 352.35 260.856 355.5 253.956 355.5ZM341.092 354.9C334.692 354.9 329.742 354 326.242 352.2C322.742 350.3 320.292 347.6 318.892 344.1C317.492 340.6 316.792 336.05 316.792 330.45V283.35H308.392V267.3H316.792V240.9H341.542V267.3H353.842V283.35H341.542V328.05C341.542 330.45 342.192 332.25 343.492 333.45C344.892 334.55 346.792 335.1 349.192 335.1C351.192 335.1 353.392 334.9 355.792 334.5V353.7C350.992 354.5 346.092 354.9 341.092 354.9Z" fill="black"/>
<path d="M26.1 232.5V228.5H22.7848L22.1695 231.758L26.1 232.5ZM56.7 232.5L60.6323 231.767L60.0232 228.5H56.7V232.5ZM79.35 354V358H84.1646L83.2823 353.267L79.35 354ZM54.6 354L50.649 354.624L51.182 358H54.6V354ZM50.55 328.35L54.5011 327.726L53.968 324.35H50.55V328.35ZM32.7 328.35V324.35H29.3017L28.7526 327.704L32.7 328.35ZM28.5 354V358H31.8983L32.4474 354.646L28.5 354ZM3.15 354L-0.780496 353.258L-1.67629 358H3.15V354ZM48 312.3V316.3H52.5812L51.9635 311.761L48 312.3ZM41.55 264.9L45.5135 264.361L37.5865 264.361L41.55 264.9ZM35.1 312.3L31.1365 311.761L30.5188 316.3H35.1V312.3ZM26.1 236.5H56.7V228.5H26.1V236.5ZM52.7677 233.233L75.4178 354.733L83.2823 353.267L60.6323 231.767L52.7677 233.233ZM79.35 350H54.6V358H79.35V350ZM58.5511 353.376L54.5011 327.726L46.599 328.974L50.649 354.624L58.5511 353.376ZM50.55 324.35H32.7V332.35H50.55V324.35ZM28.7526 327.704L24.5526 353.354L32.4474 354.646L36.6474 328.996L28.7526 327.704ZM28.5 350H3.15V358H28.5V350ZM7.0805 354.742L30.0305 233.242L22.1695 231.758L-0.780496 353.258L7.0805 354.742ZM51.9635 311.761L45.5135 264.361L37.5865 265.439L44.0365 312.839L51.9635 311.761ZM37.5865 264.361L31.1365 311.761L39.0635 312.839L45.5135 265.439L37.5865 264.361ZM35.1 316.3H48V308.3H35.1V316.3ZM114.717 347.4L117.344 344.384L110.717 338.612V347.4H114.717ZM114.717 354V358H118.717V354H114.717ZM90.2672 354H86.2672V358H90.2672V354ZM90.2672 232.5V228.5H86.2672V232.5H90.2672ZM114.717 232.5H118.717V228.5H114.717V232.5ZM114.717 273.6H110.717V282.558L117.387 276.578L114.717 273.6ZM124.017 267.75L122.551 264.028L122.551 264.028L124.017 267.75ZM147.567 272.85L144.196 275.002L144.212 275.027L144.228 275.052L147.567 272.85ZM147.267 348.3L143.971 346.034L143.971 346.034L147.267 348.3ZM126.267 337.05L122.771 335.107L122.771 335.107L126.267 337.05ZM126.267 283.05L122.732 284.922L122.799 285.048L122.875 285.17L126.267 283.05ZM114.717 283.35L112.234 280.214L110.717 281.415V283.35H114.717ZM114.717 337.35H110.717V339.387L112.365 340.585L114.717 337.35ZM133.317 351.5C128.361 351.5 123.057 349.359 117.344 344.384L112.09 350.416C118.777 356.241 125.874 359.5 133.317 359.5V351.5ZM110.717 347.4V354H118.717V347.4H110.717ZM114.717 350H90.2672V358H114.717V350ZM94.2672 354V232.5H86.2672V354H94.2672ZM90.2672 236.5H114.717V228.5H90.2672V236.5ZM110.717 232.5V273.6H118.717V232.5H110.717ZM117.387 276.578C119.968 274.265 122.667 272.581 125.483 271.472L122.551 264.028C118.767 265.519 115.266 267.735 112.047 270.622L117.387 276.578ZM125.483 271.472C128.383 270.329 131.086 269.8 133.617 269.8V261.8C129.948 261.8 126.251 262.571 122.551 264.028L125.483 271.472ZM133.617 269.8C138.761 269.8 142.036 271.619 144.196 275.002L150.939 270.698C147.098 264.681 141.074 261.8 133.617 261.8V269.8ZM144.228 275.052C146.77 278.907 148.217 284.216 148.217 291.3H156.217C156.217 283.184 154.564 276.193 150.906 270.648L144.228 275.052ZM148.217 291.3V328.65H156.217V291.3H148.217ZM148.217 328.65C148.217 336.471 146.656 342.129 143.971 346.034L150.563 350.566C154.479 344.871 156.217 337.429 156.217 328.65H148.217ZM143.971 346.034C141.444 349.71 138.047 351.5 133.317 351.5V359.5C140.587 359.5 146.491 356.49 150.563 350.566L143.971 346.034ZM121.467 343.75C123.118 343.75 124.771 343.409 126.278 342.561C127.799 341.706 128.949 340.458 129.764 338.993L122.771 335.107C122.585 335.442 122.435 335.544 122.356 335.589C122.263 335.641 122.016 335.75 121.467 335.75V343.75ZM129.764 338.993C131.201 336.405 131.767 333.317 131.767 330H123.767C123.767 332.483 123.333 334.095 122.771 335.107L129.764 338.993ZM131.767 330V289.5H123.767V330H131.767ZM131.767 289.5C131.767 286.357 131.193 283.383 129.659 280.93L122.875 285.17C123.342 285.917 123.767 287.243 123.767 289.5H131.767ZM129.802 281.178C129.038 279.735 127.928 278.501 126.439 277.657C124.97 276.825 123.359 276.5 121.767 276.5V284.5C122.276 284.5 122.465 284.6 122.495 284.618C122.506 284.624 122.596 284.665 122.732 284.922L129.802 281.178ZM121.767 276.5C118.307 276.5 115.107 277.94 112.234 280.214L117.2 286.486C119.127 284.96 120.627 284.5 121.767 284.5V276.5ZM110.717 283.35V337.35H118.717V283.35H110.717ZM112.365 340.585C115.12 342.589 118.176 343.75 121.467 343.75V335.75C120.159 335.75 118.715 335.311 117.07 334.115L112.365 340.585ZM172.296 348.3L169.611 351.265L169.625 351.277L169.639 351.29L172.296 348.3ZM172.296 273L169.639 270.01L169.625 270.023L169.611 270.035L172.296 273ZM216.996 273.15L214.308 276.112L214.323 276.126L214.339 276.14L216.996 273.15ZM216.996 348.3L219.654 351.29L219.669 351.276L219.684 351.262L216.996 348.3ZM199.596 336.75L203.131 338.622L203.153 338.58L203.174 338.539L199.596 336.75ZM199.596 284.7L196.018 286.489L196.039 286.53L196.061 286.572L199.596 284.7ZM189.846 284.7L186.349 282.757L186.307 282.833L186.268 282.911L189.846 284.7ZM189.846 336.75L186.268 338.539L186.329 338.661L186.398 338.778L189.846 336.75ZM194.646 351.5C185.811 351.5 179.416 349.277 174.954 345.31L169.639 351.29C175.976 356.923 184.481 359.5 194.646 359.5V351.5ZM174.981 345.335C170.752 341.505 168.346 335.68 168.346 327.15H160.346C160.346 337.22 163.24 345.495 169.611 351.265L174.981 345.335ZM168.346 327.15V294.15H160.346V327.15H168.346ZM168.346 294.15C168.346 285.62 170.752 279.795 174.981 275.965L169.611 270.035C163.24 275.805 160.346 284.08 160.346 294.15H168.346ZM174.954 275.99C179.416 272.023 185.811 269.8 194.646 269.8V261.8C184.481 261.8 175.976 264.377 169.639 270.01L174.954 275.99ZM194.646 269.8C203.461 269.8 209.845 272.062 214.308 276.112L219.684 270.188C213.348 264.438 204.831 261.8 194.646 261.8V269.8ZM214.339 276.14C218.663 279.984 221.096 285.758 221.096 294.15H229.096C229.096 284.142 226.129 275.916 219.654 270.16L214.339 276.14ZM221.096 294.15V327.15H229.096V294.15H221.096ZM221.096 327.15C221.096 335.538 218.664 341.385 214.308 345.338L219.684 351.262C226.128 345.415 229.096 337.162 229.096 327.15H221.096ZM214.339 345.31C209.876 349.277 203.481 351.5 194.646 351.5V359.5C204.811 359.5 213.316 356.923 219.654 351.29L214.339 345.31ZM194.796 343.3C198.229 343.3 201.389 341.913 203.131 338.622L196.061 334.878C195.961 335.067 195.893 335.104 195.844 335.13C195.757 335.176 195.464 335.3 194.796 335.3V343.3ZM203.174 338.539C204.486 335.914 204.946 332.526 204.946 328.8H196.946C196.946 332.074 196.506 333.986 196.018 334.961L203.174 338.539ZM204.946 328.8V292.5H196.946V328.8H204.946ZM204.946 292.5C204.946 288.801 204.495 285.404 203.131 282.828L196.061 286.572C196.497 287.396 196.946 289.199 196.946 292.5H204.946ZM203.174 282.911C202.402 281.368 201.245 280.068 199.682 279.189C198.15 278.327 196.462 278 194.796 278V286C195.43 286 195.692 286.123 195.76 286.161C195.797 286.182 195.89 286.232 196.018 286.489L203.174 282.911ZM194.796 278C191.25 278 188.15 279.517 186.349 282.757L193.343 286.643C193.511 286.339 193.652 286.239 193.749 286.187C193.869 286.121 194.167 286 194.796 286V278ZM186.268 282.911C184.962 285.525 184.496 288.852 184.496 292.5H192.496C192.496 289.348 192.931 287.475 193.424 286.489L186.268 282.911ZM184.496 292.5V328.8H192.496V292.5H184.496ZM184.496 328.8C184.496 332.526 184.956 335.914 186.268 338.539L193.424 334.961C192.936 333.986 192.496 332.074 192.496 328.8H184.496ZM186.398 338.778C188.248 341.923 191.358 343.3 194.796 343.3V335.3C193.634 335.3 193.444 334.977 193.294 334.722L186.398 338.778ZM241.956 349.95L238.736 352.323L238.751 352.343L238.766 352.364L241.956 349.95ZM237.756 267.3V263.3H233.756V267.3H237.756ZM262.206 267.3H266.206V263.3H262.206V267.3ZM263.406 337.35L266.641 334.997L266.641 334.997L263.406 337.35ZM274.506 336.3L276.467 339.786L278.506 338.639V336.3H274.506ZM274.506 267.3V263.3H270.506V267.3H274.506ZM298.806 267.3H302.806V263.3H298.806V267.3ZM298.806 354V358H302.806V354H298.806ZM274.506 354H270.506V358H274.506V354ZM274.506 346.05H278.506V336.891L271.787 343.116L274.506 346.05ZM253.956 351.5C249.836 351.5 247.091 350.107 245.145 347.536L238.766 352.364C242.421 357.193 247.676 359.5 253.956 359.5V351.5ZM245.176 347.577C243.005 344.631 241.756 340.629 241.756 335.25H233.756C233.756 341.871 235.306 347.669 238.736 352.323L245.176 347.577ZM241.756 335.25V267.3H233.756V335.25H241.756ZM237.756 271.3H262.206V263.3H237.756V271.3ZM258.206 267.3V332.4H266.206V267.3H258.206ZM258.206 332.4C258.206 334.966 258.651 337.613 260.171 339.703L266.641 334.997C266.561 334.887 266.206 334.234 266.206 332.4H258.206ZM260.171 339.703C261.955 342.156 264.679 343 267.306 343V335C266.8 335 266.581 334.921 266.539 334.904C266.523 334.897 266.539 334.901 266.571 334.927C266.604 334.952 266.628 334.98 266.641 334.997L260.171 339.703ZM267.306 343C270.047 343 273.257 341.592 276.467 339.786L272.545 332.814C269.355 334.608 267.765 335 267.306 335V343ZM278.506 336.3V267.3H270.506V336.3H278.506ZM274.506 271.3H298.806V263.3H274.506V271.3ZM294.806 267.3V354H302.806V267.3H294.806ZM298.806 350H274.506V358H298.806V350ZM278.506 354V346.05H270.506V354H278.506ZM271.787 343.116C265.468 348.97 259.543 351.5 253.956 351.5V359.5C262.168 359.5 269.944 355.73 277.224 348.984L271.787 343.116ZM326.242 352.2L324.333 355.715L324.373 355.737L324.412 355.757L326.242 352.2ZM318.892 344.1L315.178 345.586L315.178 345.586L318.892 344.1ZM316.792 283.35H320.792V279.35H316.792V283.35ZM308.392 283.35H304.392V287.35H308.392V283.35ZM308.392 267.3V263.3H304.392V267.3H308.392ZM316.792 267.3V271.3H320.792V267.3H316.792ZM316.792 240.9V236.9H312.792V240.9H316.792ZM341.542 240.9H345.542V236.9H341.542V240.9ZM341.542 267.3H337.542V271.3H341.542V267.3ZM353.842 267.3H357.842V263.3H353.842V267.3ZM353.842 283.35V287.35H357.842V283.35H353.842ZM341.542 283.35V279.35H337.542V283.35H341.542ZM343.492 333.45L340.779 336.389L340.895 336.497L341.021 336.595L343.492 333.45ZM355.792 334.5H359.792V329.778L355.134 330.554L355.792 334.5ZM355.792 353.7L356.449 357.646L359.792 357.089V353.7H355.792ZM341.092 350.9C334.974 350.9 330.758 350.024 328.071 348.643L324.412 355.757C328.726 357.976 334.409 358.9 341.092 358.9V350.9ZM328.15 348.685C325.42 347.203 323.639 345.196 322.606 342.614L315.178 345.586C316.945 350.004 320.063 353.397 324.333 355.715L328.15 348.685ZM322.606 342.614C321.463 339.758 320.792 335.765 320.792 330.45H312.792C312.792 336.335 313.52 341.442 315.178 345.586L322.606 342.614ZM320.792 330.45V283.35H312.792V330.45H320.792ZM316.792 279.35H308.392V287.35H316.792V279.35ZM312.392 283.35V267.3H304.392V283.35H312.392ZM308.392 271.3H316.792V263.3H308.392V271.3ZM320.792 267.3V240.9H312.792V267.3H320.792ZM316.792 244.9H341.542V236.9H316.792V244.9ZM337.542 240.9V267.3H345.542V240.9H337.542ZM341.542 271.3H353.842V263.3H341.542V271.3ZM349.842 267.3V283.35H357.842V267.3H349.842ZM353.842 279.35H341.542V287.35H353.842V279.35ZM337.542 283.35V328.05H345.542V283.35H337.542ZM337.542 328.05C337.542 331.152 338.397 334.191 340.779 336.389L346.205 330.511C345.987 330.309 345.542 329.748 345.542 328.05H337.542ZM341.021 336.595C343.336 338.414 346.206 339.1 349.192 339.1V331.1C347.378 331.1 346.448 330.686 345.963 330.305L341.021 336.595ZM349.192 339.1C351.453 339.1 353.877 338.874 356.449 338.446L355.134 330.554C352.907 330.926 350.93 331.1 349.192 331.1V339.1ZM351.792 334.5V353.7H359.792V334.5H351.792ZM355.134 349.754C350.557 350.517 345.878 350.9 341.092 350.9V358.9C346.306 358.9 351.426 358.483 356.449 357.646L355.134 349.754Z" fill="black"/>
</g>
<g id="Contact">
<path d="M43.8 521.8C30.6 521.8 21.2 518.35 15.6 511.45C10.1 504.45 7.35 494.4 7.35 481.3L7.35 437.5C7.35 424.1 10.1 414 15.6 407.2C21.1 400.3 30.5 396.85 43.8 396.85C56.5 396.85 65.5 399.9 70.8 406C76.1 412.1 78.75 420.75 78.75 431.95V442.45H52.5V430.3C52.5 425.6 52 422 51 419.5C50 417 47.6 415.75 43.8 415.75C40 415.75 37.5 417.1 36.3 419.8C35.1 422.4 34.5 426.05 34.5 430.75V487.9C34.5 492.7 35.1 496.4 36.3 499C37.6 501.5 40.1 502.75 43.8 502.75C47.5 502.75 49.85 501.5 50.85 499C51.95 496.4 52.5 492.7 52.5 487.9V475.15H78.75V485.65C78.75 497.05 76.1 505.95 70.8 512.35C65.5 518.65 56.5 521.8 43.8 521.8ZM120.671 521.5C111.171 521.5 103.721 519.1 98.3215 514.3C93.0215 509.5 90.3715 502.45 90.3715 493.15V460.15C90.3715 450.85 93.0215 443.8 98.3215 439C103.721 434.2 111.171 431.8 120.671 431.8C130.171 431.8 137.621 434.25 143.021 439.15C148.421 443.95 151.121 450.95 151.121 460.15V493.15C151.121 502.35 148.421 509.4 143.021 514.3C137.621 519.1 130.171 521.5 120.671 521.5ZM120.821 505.3C123.121 505.3 124.721 504.45 125.621 502.75C126.521 500.95 126.971 498.3 126.971 494.8V458.5C126.971 455 126.521 452.4 125.621 450.7C124.721 448.9 123.121 448 120.821 448C118.521 448 116.871 448.9 115.871 450.7C114.971 452.5 114.521 455.1 114.521 458.5V494.8C114.521 498.3 114.971 500.95 115.871 502.75C116.871 504.45 118.521 505.3 120.821 505.3ZM164.681 433.3H189.131V442C195.931 435.2 202.881 431.8 209.981 431.8C215.181 431.8 219.131 433.7 221.831 437.5C224.631 441.2 226.031 446.05 226.031 452.05V520H201.731V455.5C201.731 453.3 201.331 451.7 200.531 450.7C199.831 449.6 198.581 449.05 196.781 449.05C194.781 449.05 192.231 450.1 189.131 452.2V520H164.681V433.3ZM267.557 520.9C261.157 520.9 256.207 520 252.707 518.2C249.207 516.3 246.757 513.6 245.357 510.1C243.957 506.6 243.257 502.05 243.257 496.45V449.35H234.857V433.3H243.257V406.9H268.007V433.3H280.307V449.35H268.007V494.05C268.007 496.45 268.657 498.25 269.957 499.45C271.357 500.55 273.257 501.1 275.657 501.1C277.657 501.1 279.857 500.9 282.257 500.5V519.7C277.457 520.5 272.557 520.9 267.557 520.9ZM311.584 521.5C307.384 521.5 303.734 520.5 300.634 518.5C297.634 516.4 295.334 513.75 293.734 510.55C292.234 507.25 291.484 503.85 291.484 500.35C291.484 493.65 293.184 488.15 296.584 483.85C299.984 479.55 304.034 476.2 308.734 473.8C313.534 471.4 319.684 468.9 327.184 466.3V457.6C327.184 455.1 326.784 453.2 325.984 451.9C325.284 450.6 323.984 449.95 322.084 449.95C320.184 449.95 318.834 450.55 318.034 451.75C317.234 452.95 316.784 454.65 316.684 456.85L316.084 463.15L293.284 462.25C293.684 451.85 296.434 444.2 301.534 439.3C306.634 434.3 314.234 431.8 324.334 431.8C332.834 431.8 339.334 434.2 343.834 439C348.334 443.7 350.584 450 350.584 457.9V498.4C350.584 507.2 351.084 514.4 352.084 520H330.184C329.284 513.3 328.634 509.2 328.234 507.7C327.034 511.7 325.034 515 322.234 517.6C319.434 520.2 315.884 521.5 311.584 521.5ZM320.284 505C322.784 505 325.084 503.55 327.184 500.65V476.95C322.684 479.55 319.284 482.3 316.984 485.2C314.684 488 313.534 491.45 313.534 495.55C313.534 498.45 314.134 500.75 315.334 502.45C316.534 504.15 318.184 505 320.284 505ZM393.272 521.5C383.872 521.5 376.522 518.95 371.222 513.85C365.922 508.75 363.272 501.65 363.272 492.55V460.75C363.272 451.55 365.872 444.45 371.072 439.45C376.372 434.35 383.772 431.8 393.272 431.8C402.672 431.8 409.872 434 414.872 438.4C419.972 442.8 422.522 449.3 422.522 457.9V467.05H398.972V457.15C398.972 453.85 398.472 451.6 397.472 450.4C396.572 449.1 395.172 448.45 393.272 448.45C391.372 448.45 389.972 449.25 389.072 450.85C388.272 452.35 387.872 454.95 387.872 458.65V494.65C387.872 498.35 388.322 500.95 389.222 502.45C390.122 503.95 391.522 504.7 393.422 504.7C395.322 504.7 396.722 504.05 397.622 502.75C398.522 501.45 398.972 499.25 398.972 496.15V484.6H422.522V495.1C422.522 503.7 419.972 510.25 414.872 514.75C409.772 519.25 402.572 521.5 393.272 521.5ZM462.088 520.9C455.688 520.9 450.738 520 447.238 518.2C443.738 516.3 441.288 513.6 439.888 510.1C438.488 506.6 437.788 502.05 437.788 496.45V449.35H429.388V433.3H437.788V406.9H462.538V433.3H474.838V449.35H462.538V494.05C462.538 496.45 463.188 498.25 464.488 499.45C465.888 500.55 467.788 501.1 470.188 501.1C472.188 501.1 474.388 500.9 476.788 500.5V519.7C471.988 520.5 467.088 520.9 462.088 520.9Z" fill="black"/>
<path d="M15.6 511.45L12.4547 513.921L12.4743 513.946L12.4942 513.971L15.6 511.45ZM15.6 407.2L18.71 409.715L18.719 409.704L18.7279 409.693L15.6 407.2ZM78.75 442.45V446.45H82.75V442.45H78.75ZM52.5 442.45H48.5V446.45H52.5V442.45ZM51 419.5L47.2861 420.986L47.2861 420.986L51 419.5ZM36.3 419.8L39.9318 421.476L39.9437 421.45L39.9552 421.425L36.3 419.8ZM36.3 499L32.6682 500.676L32.7077 500.762L32.7511 500.845L36.3 499ZM50.85 499L47.1661 497.441L47.1508 497.478L47.1361 497.514L50.85 499ZM52.5 475.15V471.15H48.5V475.15H52.5ZM78.75 475.15H82.75V471.15H78.75V475.15ZM70.8 512.35L73.8609 514.925L73.8709 514.913L73.8808 514.901L70.8 512.35ZM43.8 517.8C31.2048 517.8 23.2351 514.51 18.7058 508.929L12.4942 513.971C19.1649 522.19 29.9952 525.8 43.8 525.8V517.8ZM18.7453 508.979C14.0067 502.948 11.35 493.911 11.35 481.3H3.35C3.35 494.889 6.19331 505.952 12.4547 513.921L18.7453 508.979ZM11.35 481.3V437.5H3.35V481.3H11.35ZM11.35 437.5C11.35 424.552 14.022 415.512 18.71 409.715L12.49 404.685C6.17803 412.488 3.35 423.648 3.35 437.5H11.35ZM18.7279 409.693C23.1471 404.149 31.0854 400.85 43.8 400.85V392.85C29.9146 392.85 19.0529 396.451 12.4721 404.707L18.7279 409.693ZM43.8 400.85C55.9981 400.85 63.5848 403.794 67.7805 408.623L73.8195 403.377C67.4152 396.005 57.0019 392.85 43.8 392.85V400.85ZM67.7805 408.623C72.241 413.757 74.75 421.343 74.75 431.95H82.75C82.75 420.157 79.959 410.443 73.8195 403.377L67.7805 408.623ZM74.75 431.95V442.45H82.75V431.95H74.75ZM78.75 438.45H52.5V446.45H78.75V438.45ZM56.5 442.45V430.3H48.5V442.45H56.5ZM56.5 430.3C56.5 425.413 55.994 421.215 54.7139 418.014L47.2861 420.986C48.0061 422.785 48.5 425.787 48.5 430.3H56.5ZM54.7139 418.014C52.8554 413.368 48.434 411.75 43.8 411.75V419.75C46.766 419.75 47.1446 420.632 47.2861 420.986L54.7139 418.014ZM43.8 411.75C41.4515 411.75 39.1721 412.164 37.1744 413.243C35.1133 414.356 33.5886 416.052 32.6448 418.175L39.9552 421.425C40.2114 420.848 40.5367 420.519 40.9756 420.282C41.4779 420.011 42.3485 419.75 43.8 419.75V411.75ZM32.6682 418.124C31.1185 421.481 30.5 425.797 30.5 430.75H38.5C38.5 426.303 39.0815 423.319 39.9318 421.476L32.6682 418.124ZM30.5 430.75V487.9H38.5V430.75H30.5ZM30.5 487.9C30.5 492.938 31.1148 497.311 32.6682 500.676L39.9318 497.324C39.0852 495.489 38.5 492.462 38.5 487.9H30.5ZM32.7511 500.845C34.9594 505.092 39.1533 506.75 43.8 506.75V498.75C41.0467 498.75 40.2406 497.908 39.8489 497.155L32.7511 500.845ZM43.8 506.75C46.0633 506.75 48.2813 506.373 50.216 505.344C52.2358 504.27 53.7174 502.602 54.5639 500.486L47.1361 497.514C46.9826 497.898 46.7892 498.105 46.4591 498.281C46.0437 498.502 45.2367 498.75 43.8 498.75V506.75ZM54.5339 500.559C55.9395 497.236 56.5 492.913 56.5 487.9H48.5C48.5 492.487 47.9606 495.564 47.1661 497.441L54.5339 500.559ZM56.5 487.9V475.15H48.5V487.9H56.5ZM52.5 479.15H78.75V471.15H52.5V479.15ZM74.75 475.15V485.65H82.75V475.15H74.75ZM74.75 485.65C74.75 496.463 72.2371 504.343 67.7192 509.799L73.8808 514.901C79.9629 507.557 82.75 497.637 82.75 485.65H74.75ZM67.7391 509.775C63.5337 514.774 55.9629 517.8 43.8 517.8V525.8C57.0371 525.8 67.4663 522.526 73.8609 514.925L67.7391 509.775ZM98.3215 514.3L95.6364 517.265L95.6501 517.277L95.664 517.29L98.3215 514.3ZM98.3215 439L95.664 436.01L95.6501 436.023L95.6364 436.035L98.3215 439ZM143.021 439.15L140.334 442.112L140.349 442.126L140.364 442.14L143.021 439.15ZM143.021 514.3L145.679 517.29L145.694 517.276L145.709 517.262L143.021 514.3ZM125.621 502.75L129.157 504.622L129.178 504.58L129.199 504.539L125.621 502.75ZM125.621 450.7L122.044 452.489L122.065 452.53L122.086 452.572L125.621 450.7ZM115.871 450.7L112.375 448.757L112.333 448.833L112.294 448.911L115.871 450.7ZM115.871 502.75L112.294 504.539L112.355 504.661L112.424 504.778L115.871 502.75ZM120.671 517.5C111.836 517.5 105.441 515.277 100.979 511.31L95.664 517.29C102.002 522.923 110.507 525.5 120.671 525.5V517.5ZM101.007 511.335C96.7777 507.505 94.3715 501.68 94.3715 493.15H86.3715C86.3715 503.22 89.2653 511.495 95.6364 517.265L101.007 511.335ZM94.3715 493.15V460.15H86.3715V493.15H94.3715ZM94.3715 460.15C94.3715 451.62 96.7777 445.795 101.007 441.965L95.6364 436.035C89.2653 441.805 86.3715 450.08 86.3715 460.15H94.3715ZM100.979 441.99C105.441 438.023 111.836 435.8 120.671 435.8V427.8C110.507 427.8 102.002 430.377 95.664 436.01L100.979 441.99ZM120.671 435.8C129.487 435.8 135.87 438.062 140.334 442.112L145.709 436.188C139.373 430.438 130.856 427.8 120.671 427.8V435.8ZM140.364 442.14C144.689 445.984 147.121 451.758 147.121 460.15H155.121C155.121 450.142 152.154 441.916 145.679 436.16L140.364 442.14ZM147.121 460.15V493.15H155.121V460.15H147.121ZM147.121 493.15C147.121 501.538 144.69 507.385 140.334 511.338L145.709 517.262C152.153 511.415 155.121 503.162 155.121 493.15H147.121ZM140.364 511.31C135.902 515.277 129.507 517.5 120.671 517.5V525.5C130.836 525.5 139.341 522.923 145.679 517.29L140.364 511.31ZM120.821 509.3C124.255 509.3 127.414 507.913 129.157 504.622L122.086 500.878C121.986 501.067 121.919 501.104 121.87 501.13C121.783 501.176 121.489 501.3 120.821 501.3V509.3ZM129.199 504.539C130.512 501.914 130.971 498.526 130.971 494.8H122.971C122.971 498.074 122.531 499.986 122.044 500.961L129.199 504.539ZM130.971 494.8V458.5H122.971V494.8H130.971ZM130.971 458.5C130.971 454.801 130.52 451.404 129.157 448.828L122.086 452.572C122.523 453.396 122.971 455.199 122.971 458.5H130.971ZM129.199 448.911C128.428 447.368 127.271 446.068 125.708 445.189C124.175 444.327 122.487 444 120.821 444V452C121.456 452 121.717 452.123 121.785 452.161C121.822 452.182 121.915 452.232 122.044 452.489L129.199 448.911ZM120.821 444C117.275 444 114.175 445.517 112.375 448.757L119.368 452.643C119.537 452.339 119.677 452.239 119.774 452.187C119.894 452.121 120.193 452 120.821 452V444ZM112.294 448.911C110.987 451.525 110.521 454.852 110.521 458.5H118.521C118.521 455.348 118.956 453.475 119.449 452.489L112.294 448.911ZM110.521 458.5V494.8H118.521V458.5H110.521ZM110.521 494.8C110.521 498.526 110.981 501.914 112.294 504.539L119.449 500.961C118.962 499.986 118.521 498.074 118.521 494.8H110.521ZM112.424 504.778C114.274 507.923 117.384 509.3 120.821 509.3V501.3C119.659 501.3 119.469 500.977 119.319 500.722L112.424 504.778ZM164.681 433.3V429.3H160.681V433.3H164.681ZM189.131 433.3H193.131V429.3H189.131V433.3ZM189.131 442H185.131V451.657L191.96 444.828L189.131 442ZM221.831 437.5L218.571 439.817L218.605 439.866L218.642 439.914L221.831 437.5ZM226.031 520V524H230.031V520H226.031ZM201.731 520H197.731V524H201.731V520ZM200.531 450.7L197.157 452.847L197.273 453.03L197.408 453.199L200.531 450.7ZM189.131 452.2L186.888 448.888L185.131 450.078V452.2H189.131ZM189.131 520V524H193.131V520H189.131ZM164.681 520H160.681V524H164.681V520ZM164.681 437.3H189.131V429.3H164.681V437.3ZM185.131 433.3V442H193.131V433.3H185.131ZM191.96 444.828C198.283 438.505 204.274 435.8 209.981 435.8V427.8C201.488 427.8 193.58 431.895 186.303 439.172L191.96 444.828ZM209.981 435.8C214.06 435.8 216.716 437.207 218.571 439.817L225.092 435.183C221.546 430.193 216.303 427.8 209.981 427.8V435.8ZM218.642 439.914C220.78 442.739 222.031 446.665 222.031 452.05H230.031C230.031 445.435 228.483 439.661 225.021 435.086L218.642 439.914ZM222.031 452.05V520H230.031V452.05H222.031ZM226.031 516H201.731V524H226.031V516ZM205.731 520V455.5H197.731V520H205.731ZM205.731 455.5C205.731 452.982 205.305 450.264 203.655 448.201L197.408 453.199C197.361 453.14 197.452 453.224 197.551 453.62C197.65 454.018 197.731 454.626 197.731 455.5H205.731ZM203.906 448.552C202.209 445.886 199.375 445.05 196.781 445.05V453.05C197.295 453.05 197.474 453.131 197.458 453.124C197.443 453.117 197.389 453.09 197.319 453.032C197.249 452.972 197.193 452.905 197.157 452.847L203.906 448.552ZM196.781 445.05C193.542 445.05 190.157 446.674 186.888 448.888L191.375 455.512C194.306 453.526 196.02 453.05 196.781 453.05V445.05ZM185.131 452.2V520H193.131V452.2H185.131ZM189.131 516H164.681V524H189.131V516ZM168.681 520V433.3H160.681V520H168.681ZM252.707 518.2L250.798 521.715L250.838 521.737L250.877 521.757L252.707 518.2ZM245.357 510.1L241.643 511.586L241.643 511.586L245.357 510.1ZM243.257 449.35H247.257V445.35H243.257V449.35ZM234.857 449.35H230.857V453.35H234.857V449.35ZM234.857 433.3V429.3H230.857V433.3H234.857ZM243.257 433.3V437.3H247.257V433.3H243.257ZM243.257 406.9V402.9H239.257V406.9H243.257ZM268.007 406.9H272.007V402.9H268.007V406.9ZM268.007 433.3H264.007V437.3H268.007V433.3ZM280.307 433.3H284.307V429.3H280.307V433.3ZM280.307 449.35V453.35H284.307V449.35H280.307ZM268.007 449.35V445.35H264.007V449.35H268.007ZM269.957 499.45L267.244 502.389L267.36 502.497L267.485 502.595L269.957 499.45ZM282.257 500.5H286.257V495.778L281.599 496.554L282.257 500.5ZM282.257 519.7L282.914 523.646L286.257 523.089V519.7H282.257ZM267.557 516.9C261.439 516.9 257.222 516.024 254.536 514.643L250.877 521.757C255.191 523.976 260.874 524.9 267.557 524.9V516.9ZM254.615 514.685C251.885 513.203 250.103 511.196 249.071 508.614L241.643 511.586C243.41 516.004 246.528 519.397 250.798 521.715L254.615 514.685ZM249.071 508.614C247.928 505.758 247.257 501.765 247.257 496.45H239.257C239.257 502.335 239.985 507.442 241.643 511.586L249.071 508.614ZM247.257 496.45V449.35H239.257V496.45H247.257ZM243.257 445.35H234.857V453.35H243.257V445.35ZM238.857 449.35V433.3H230.857V449.35H238.857ZM234.857 437.3H243.257V429.3H234.857V437.3ZM247.257 433.3V406.9H239.257V433.3H247.257ZM243.257 410.9H268.007V402.9H243.257V410.9ZM264.007 406.9V433.3H272.007V406.9H264.007ZM268.007 437.3H280.307V429.3H268.007V437.3ZM276.307 433.3V449.35H284.307V433.3H276.307ZM280.307 445.35H268.007V453.35H280.307V445.35ZM264.007 449.35V494.05H272.007V449.35H264.007ZM264.007 494.05C264.007 497.152 264.862 500.191 267.244 502.389L272.67 496.511C272.452 496.309 272.007 495.748 272.007 494.05H264.007ZM267.485 502.595C269.8 504.414 272.671 505.1 275.657 505.1V497.1C273.843 497.1 272.913 496.686 272.428 496.305L267.485 502.595ZM275.657 505.1C277.918 505.1 280.342 504.874 282.914 504.446L281.599 496.554C279.372 496.926 277.395 497.1 275.657 497.1V505.1ZM278.257 500.5V519.7H286.257V500.5H278.257ZM281.599 515.754C277.022 516.517 272.342 516.9 267.557 516.9V524.9C272.771 524.9 277.891 524.483 282.914 523.646L281.599 515.754ZM300.634 518.5L298.34 521.777L298.402 521.82L298.465 521.861L300.634 518.5ZM293.734 510.55L290.093 512.205L290.123 512.273L290.156 512.339L293.734 510.55ZM296.584 483.85L293.446 481.369L293.446 481.369L296.584 483.85ZM308.734 473.8L306.945 470.222L306.93 470.23L306.915 470.238L308.734 473.8ZM327.184 466.3L328.494 470.079L331.184 469.147V466.3H327.184ZM325.984 451.9L322.462 453.796L322.517 453.898L322.577 453.996L325.984 451.9ZM316.684 456.85L320.666 457.229L320.675 457.131L320.68 457.032L316.684 456.85ZM316.084 463.15L315.926 467.147L319.707 467.296L320.066 463.529L316.084 463.15ZM293.284 462.25L289.287 462.096L289.133 466.089L293.126 466.247L293.284 462.25ZM301.534 439.3L304.305 442.184L304.32 442.17L304.334 442.156L301.534 439.3ZM343.834 439L340.916 441.736L340.93 441.751L340.945 441.766L343.834 439ZM352.084 520V524H356.862L356.022 519.297L352.084 520ZM330.184 520L326.22 520.533L326.685 524H330.184V520ZM328.234 507.7L332.099 506.669L328.46 493.025L324.403 506.551L328.234 507.7ZM322.234 517.6L319.512 514.669L319.512 514.669L322.234 517.6ZM327.184 500.65L330.424 502.996L331.184 501.946V500.65H327.184ZM327.184 476.95H331.184V470.019L325.183 473.487L327.184 476.95ZM316.984 485.2L320.075 487.739L320.097 487.712L320.118 487.686L316.984 485.2ZM315.334 502.45L312.066 504.757L312.066 504.757L315.334 502.45ZM311.584 517.5C308.044 517.5 305.17 516.666 302.802 515.139L298.465 521.861C302.298 524.334 306.724 525.5 311.584 525.5V517.5ZM302.928 515.223C300.46 513.495 298.607 511.352 297.312 508.761L290.156 512.339C292.061 516.148 294.808 519.305 298.34 521.777L302.928 515.223ZM297.375 508.895C296.103 506.096 295.484 503.258 295.484 500.35H287.484C287.484 504.442 288.365 508.404 290.093 512.205L297.375 508.895ZM295.484 500.35C295.484 494.345 296.996 489.778 299.722 486.331L293.446 481.369C289.372 486.522 287.484 492.955 287.484 500.35H295.484ZM299.722 486.331C302.779 482.464 306.385 479.491 310.553 477.362L306.915 470.238C301.683 472.909 297.189 476.636 293.446 481.369L299.722 486.331ZM310.523 477.378C315.114 475.082 321.088 472.647 328.494 470.079L325.874 462.521C318.28 465.153 311.954 467.718 306.945 470.222L310.523 477.378ZM331.184 466.3V457.6H323.184V466.3H331.184ZM331.184 457.6C331.184 454.784 330.753 452.017 329.391 449.804L322.577 453.996C322.815 454.383 323.184 455.416 323.184 457.6H331.184ZM329.506 450.004C327.902 447.025 324.962 445.95 322.084 445.95V453.95C322.597 453.95 322.744 454.04 322.695 454.015C322.666 454.001 322.612 453.967 322.554 453.911C322.497 453.855 322.469 453.809 322.462 453.796L329.506 450.004ZM322.084 445.95C319.319 445.95 316.476 446.876 314.706 449.531L321.362 453.969C321.357 453.977 321.337 454.003 321.305 454.03C321.273 454.056 321.255 454.062 321.271 454.055C321.311 454.038 321.54 453.95 322.084 453.95V445.95ZM314.706 449.531C313.343 451.576 312.805 454.095 312.688 456.668L320.68 457.032C320.763 455.205 321.125 454.324 321.362 453.969L314.706 449.531ZM312.702 456.471L312.102 462.771L320.066 463.529L320.666 457.229L312.702 456.471ZM316.242 459.153L293.442 458.253L293.126 466.247L315.926 467.147L316.242 459.153ZM297.281 462.404C297.66 452.555 300.24 446.09 304.305 442.184L298.763 436.416C292.628 442.31 289.708 451.145 289.287 462.096L297.281 462.404ZM304.334 442.156C308.424 438.147 314.844 435.8 324.334 435.8V427.8C313.624 427.8 304.844 430.453 298.734 436.444L304.334 442.156ZM324.334 435.8C332.069 435.8 337.377 437.961 340.916 441.736L346.752 436.264C341.291 430.439 333.599 427.8 324.334 427.8V435.8ZM340.945 441.766C344.585 445.568 346.584 450.797 346.584 457.9H354.584C354.584 449.203 352.083 441.832 346.723 436.234L340.945 441.766ZM346.584 457.9V498.4H354.584V457.9H346.584ZM346.584 498.4C346.584 507.323 347.089 514.782 348.146 520.703L356.022 519.297C355.079 514.018 354.584 507.077 354.584 498.4H346.584ZM352.084 516H330.184V524H352.084V516ZM334.148 519.467C333.263 512.876 332.58 508.474 332.099 506.669L324.369 508.731C324.688 509.926 325.305 513.724 326.22 520.533L334.148 519.467ZM324.403 506.551C323.388 509.934 321.743 512.598 319.512 514.669L324.956 520.531C328.325 517.402 330.68 513.466 332.065 508.849L324.403 506.551ZM319.512 514.669C317.546 516.494 315.011 517.5 311.584 517.5V525.5C316.757 525.5 321.322 523.906 324.956 520.531L319.512 514.669ZM320.284 509C324.56 509 327.917 506.458 330.424 502.996L323.944 498.304C322.251 500.642 321.008 501 320.284 501V509ZM331.184 500.65V476.95H323.184V500.65H331.184ZM325.183 473.487C320.41 476.244 316.562 479.295 313.85 482.714L320.118 487.686C322.006 485.305 324.958 482.856 329.185 480.413L325.183 473.487ZM313.893 482.661C310.928 486.27 309.534 490.653 309.534 495.55H317.534C317.534 492.247 318.44 489.73 320.075 487.739L313.893 482.661ZM309.534 495.55C309.534 498.96 310.235 502.163 312.066 504.757L318.602 500.143C318.033 499.337 317.534 497.94 317.534 495.55H309.534ZM312.066 504.757C314.024 507.53 316.899 509 320.284 509V501C319.469 501 319.044 500.77 318.602 500.143L312.066 504.757ZM371.222 513.85L368.448 516.732L371.222 513.85ZM371.072 439.45L373.844 442.333L373.845 442.332L371.072 439.45ZM414.872 438.4L412.229 441.403L412.244 441.416L412.259 441.429L414.872 438.4ZM422.522 467.05V471.05H426.522V467.05H422.522ZM398.972 467.05H394.972V471.05H398.972V467.05ZM397.472 450.4L394.183 452.677L394.285 452.824L394.399 452.961L397.472 450.4ZM389.072 450.85L385.586 448.889L385.564 448.928L385.542 448.968L389.072 450.85ZM389.222 502.45L392.652 500.392L392.652 500.392L389.222 502.45ZM397.622 502.75L400.911 505.027L400.911 505.027L397.622 502.75ZM398.972 484.6V480.6H394.972V484.6H398.972ZM422.522 484.6H426.522V480.6H422.522V484.6ZM414.872 514.75L417.518 517.749L417.518 517.749L414.872 514.75ZM393.272 517.5C384.606 517.5 378.359 515.167 373.995 510.968L368.448 516.732C374.685 522.733 383.137 525.5 393.272 525.5V517.5ZM373.995 510.968C369.657 506.793 367.272 500.838 367.272 492.55H359.272C359.272 502.462 362.186 510.707 368.448 516.732L373.995 510.968ZM367.272 492.55V460.75H359.272V492.55H367.272ZM367.272 460.75C367.272 452.322 369.631 446.385 373.844 442.333L368.299 436.567C362.113 442.515 359.272 450.778 359.272 460.75H367.272ZM373.845 442.332C378.201 438.141 384.493 435.8 393.272 435.8V427.8C383.051 427.8 374.542 430.559 368.298 436.568L373.845 442.332ZM393.272 435.8C402.096 435.8 408.211 437.867 412.229 441.403L417.514 435.397C411.533 430.133 403.247 427.8 393.272 427.8V435.8ZM412.259 441.429C416.246 444.869 418.522 450.117 418.522 457.9H426.522C426.522 448.483 423.697 440.731 417.485 435.371L412.259 441.429ZM418.522 457.9V467.05H426.522V457.9H418.522ZM422.522 463.05H398.972V471.05H422.522V463.05ZM402.972 467.05V457.15H394.972V467.05H402.972ZM402.972 457.15C402.972 455.322 402.836 453.623 402.502 452.12C402.174 450.646 401.601 449.107 400.545 447.839L394.399 452.961C394.343 452.893 394.52 453.079 394.692 453.855C394.858 454.602 394.972 455.678 394.972 457.15H402.972ZM400.761 448.123C398.957 445.518 396.183 444.45 393.272 444.45V452.45C393.771 452.45 393.998 452.535 394.062 452.566C394.095 452.581 394.109 452.592 394.116 452.598C394.124 452.605 394.148 452.625 394.183 452.677L400.761 448.123ZM393.272 444.45C389.989 444.45 387.224 445.976 385.586 448.889L392.558 452.811C392.635 452.674 392.696 452.601 392.729 452.568C392.759 452.536 392.775 452.527 392.781 452.523C392.788 452.519 392.816 452.504 392.883 452.487C392.953 452.47 393.077 452.45 393.272 452.45V444.45ZM385.542 448.968C384.239 451.412 383.872 454.894 383.872 458.65H391.872C391.872 455.006 392.305 453.288 392.601 452.732L385.542 448.968ZM383.872 458.65V494.65H391.872V458.65H383.872ZM383.872 494.65C383.872 498.431 384.288 502.002 385.792 504.508L392.652 500.392C392.356 499.898 391.872 498.269 391.872 494.65H383.872ZM385.792 504.508C387.487 507.333 390.263 508.7 393.422 508.7V500.7C393.002 500.7 392.851 500.62 392.836 500.612C392.823 500.605 392.809 500.596 392.788 500.575C392.765 500.553 392.716 500.499 392.652 500.392L385.792 504.508ZM393.422 508.7C396.333 508.7 399.107 507.632 400.911 505.027L394.333 500.473C394.298 500.525 394.274 500.545 394.266 500.552C394.259 500.558 394.245 500.569 394.212 500.584C394.148 500.615 393.921 500.7 393.422 500.7V508.7ZM400.911 505.027C402.543 502.67 402.972 499.409 402.972 496.15H394.972C394.972 499.091 394.501 500.23 394.333 500.473L400.911 505.027ZM402.972 496.15V484.6H394.972V496.15H402.972ZM398.972 488.6H422.522V480.6H398.972V488.6ZM418.522 484.6V495.1H426.522V484.6H418.522ZM418.522 495.1C418.522 502.878 416.247 508.202 412.225 511.751L417.518 517.749C423.696 512.298 426.522 504.522 426.522 495.1H418.522ZM412.225 511.751C408.087 515.402 401.957 517.5 393.272 517.5V525.5C403.187 525.5 411.457 523.098 417.518 517.749L412.225 511.751ZM447.238 518.2L445.33 521.715L445.369 521.737L445.409 521.757L447.238 518.2ZM439.888 510.1L436.174 511.586L436.174 511.586L439.888 510.1ZM437.788 449.35H441.788V445.35H437.788V449.35ZM429.388 449.35H425.388V453.35H429.388V449.35ZM429.388 433.3V429.3H425.388V433.3H429.388ZM437.788 433.3V437.3H441.788V433.3H437.788ZM437.788 406.9V402.9H433.788V406.9H437.788ZM462.538 406.9H466.538V402.9H462.538V406.9ZM462.538 433.3H458.538V437.3H462.538V433.3ZM474.838 433.3H478.838V429.3H474.838V433.3ZM474.838 449.35V453.35H478.838V449.35H474.838ZM462.538 449.35V445.35H458.538V449.35H462.538ZM464.488 499.45L461.775 502.389L461.892 502.497L462.017 502.595L464.488 499.45ZM476.788 500.5H480.788V495.778L476.13 496.554L476.788 500.5ZM476.788 519.7L477.445 523.646L480.788 523.089V519.7H476.788ZM462.088 516.9C455.97 516.9 451.754 516.024 449.067 514.643L445.409 521.757C449.722 523.976 455.405 524.9 462.088 524.9V516.9ZM449.146 514.685C446.416 513.203 444.635 511.196 443.602 508.614L436.174 511.586C437.941 516.004 441.059 519.397 445.33 521.715L449.146 514.685ZM443.602 508.614C442.459 505.758 441.788 501.765 441.788 496.45H433.788C433.788 502.335 434.517 507.442 436.174 511.586L443.602 508.614ZM441.788 496.45V449.35H433.788V496.45H441.788ZM437.788 445.35H429.388V453.35H437.788V445.35ZM433.388 449.35V433.3H425.388V449.35H433.388ZM429.388 437.3H437.788V429.3H429.388V437.3ZM441.788 433.3V406.9H433.788V433.3H441.788ZM437.788 410.9H462.538V402.9H437.788V410.9ZM458.538 406.9V433.3H466.538V406.9H458.538ZM462.538 437.3H474.838V429.3H462.538V437.3ZM470.838 433.3V449.35H478.838V433.3H470.838ZM474.838 445.35H462.538V453.35H474.838V445.35ZM458.538 449.35V494.05H466.538V449.35H458.538ZM458.538 494.05C458.538 497.152 459.393 500.191 461.775 502.389L467.201 496.511C466.983 496.309 466.538 495.748 466.538 494.05H458.538ZM462.017 502.595C464.332 504.414 467.202 505.1 470.188 505.1V497.1C468.374 497.1 467.444 496.686 466.959 496.305L462.017 502.595ZM470.188 505.1C472.449 505.1 474.873 504.874 477.445 504.446L476.13 496.554C473.903 496.926 471.926 497.1 470.188 497.1V505.1ZM472.788 500.5V519.7H480.788V500.5H472.788ZM476.13 515.754C471.554 516.517 466.874 516.9 462.088 516.9V524.9C467.302 524.9 472.422 524.483 477.445 523.646L476.13 515.754Z" fill="black"/>
</g>
</g>
</g>
<defs>
<clipPath id="clip0">
<rect width="900" height="579" fill="white"/>
</clipPath>
</defs>
</svg>
